<svg width="504" height="488" viewBox="0 0 504 488" fill="none" xmlns="http://www.w3.org/2000/svg">
<rect x="0.0720215" y="3.72949" width="500.177" height="483.655" transform="rotate(-0.334664 0.0720215 3.72949)" fill="white"/>
<path d="M86.96 202.44C90.5867 202.44 93.2933 203.227 95.08 204.8C96.8933 206.373 97.8 208.613 97.8 211.52C97.8 212.827 97.6133 214.08 97.24 215.28C96.8667 216.453 96.2533 217.52 95.4 218.48C94.5733 219.413 93.4667 220.16 92.08 220.72C90.6933 221.253 88.9867 221.52 86.96 221.52H84.8V231H77.08V202.44H86.96ZM86.8 208.68H84.8V215.24H86.32C86.9867 215.24 87.6 215.133 88.16 214.92C88.7467 214.68 89.2133 214.307 89.56 213.8C89.9067 213.267 90.08 212.573 90.08 211.72C90.08 210.813 89.8133 210.08 89.28 209.52C88.7467 208.96 87.92 208.68 86.8 208.68ZM119.473 208.48C119.9 208.48 120.34 208.507 120.793 208.56C121.247 208.613 121.58 208.667 121.793 208.72L121.113 215.92C120.847 215.867 120.513 215.813 120.113 215.76C119.74 215.707 119.207 215.68 118.513 215.68C118.033 215.68 117.513 215.733 116.953 215.84C116.42 215.92 115.9 216.107 115.393 216.4C114.913 216.693 114.513 217.133 114.193 217.72C113.9 218.307 113.753 219.107 113.753 220.12V231H106.113V208.88H111.793L112.993 212.4H113.353C113.753 211.68 114.273 211.027 114.913 210.44C115.553 209.827 116.26 209.347 117.033 209C117.833 208.653 118.647 208.48 119.473 208.48ZM149.402 219.88C149.402 221.72 149.149 223.36 148.642 224.8C148.136 226.24 147.402 227.453 146.442 228.44C145.482 229.4 144.322 230.133 142.962 230.64C141.602 231.147 140.056 231.4 138.322 231.4C136.722 231.4 135.242 231.147 133.882 230.64C132.549 230.133 131.389 229.4 130.402 228.44C129.442 227.453 128.682 226.24 128.122 224.8C127.589 223.36 127.322 221.72 127.322 219.88C127.322 217.427 127.762 215.36 128.642 213.68C129.549 211.973 130.829 210.68 132.482 209.8C134.136 208.92 136.122 208.48 138.442 208.48C140.576 208.48 142.456 208.92 144.082 209.8C145.736 210.68 147.029 211.973 147.962 213.68C148.922 215.36 149.402 217.427 149.402 219.88ZM135.082 219.88C135.082 221.133 135.189 222.2 135.402 223.08C135.616 223.96 135.962 224.627 136.442 225.08C136.949 225.507 137.602 225.72 138.402 225.72C139.202 225.72 139.829 225.507 140.282 225.08C140.762 224.627 141.109 223.96 141.322 223.08C141.536 222.2 141.642 221.133 141.642 219.88C141.642 218.627 141.536 217.573 141.322 216.72C141.109 215.867 140.762 215.227 140.282 214.8C139.802 214.373 139.162 214.16 138.362 214.16C137.216 214.16 136.376 214.64 135.842 215.6C135.336 216.56 135.082 217.987 135.082 219.88ZM161.85 219.72L155.09 208.88H163.77L167.13 215.08L170.57 208.88H179.25L172.33 219.72L179.53 231H170.85L167.13 224.28L163.41 231H154.73L161.85 219.72ZM194.245 208.88V231H186.605V208.88H194.245ZM190.445 199.96C191.538 199.96 192.485 200.187 193.285 200.64C194.112 201.093 194.525 202 194.525 203.36C194.525 204.667 194.112 205.56 193.285 206.04C192.485 206.493 191.538 206.72 190.445 206.72C189.325 206.72 188.365 206.493 187.565 206.04C186.792 205.56 186.405 204.667 186.405 203.36C186.405 202 186.792 201.093 187.565 200.64C188.365 200.187 189.325 199.96 190.445 199.96ZM230.773 208.48C233.306 208.48 235.239 209.12 236.573 210.4C237.906 211.68 238.573 213.747 238.573 216.6V231H230.933V218.96C230.933 217.28 230.706 216.12 230.253 215.48C229.799 214.813 229.133 214.48 228.253 214.48C227.026 214.48 226.173 215.027 225.693 216.12C225.213 217.187 224.973 218.707 224.973 220.68V231H217.333V218.96C217.333 217.893 217.239 217.04 217.053 216.4C216.866 215.733 216.586 215.253 216.213 214.96C215.839 214.64 215.359 214.48 214.773 214.48C213.893 214.48 213.199 214.747 212.693 215.28C212.213 215.813 211.879 216.587 211.693 217.6C211.506 218.613 211.413 219.853 211.413 221.32V231H203.773V208.88H209.533L210.653 211.6H210.853C211.253 210.987 211.759 210.453 212.373 210C212.986 209.52 213.719 209.147 214.573 208.88C215.426 208.613 216.399 208.48 217.493 208.48C219.119 208.48 220.453 208.76 221.493 209.32C222.559 209.853 223.426 210.6 224.093 211.56H224.333C225.026 210.573 225.919 209.813 227.013 209.28C228.133 208.747 229.386 208.48 230.773 208.48ZM258.773 208.48C261.573 208.48 263.759 209.173 265.333 210.56C266.906 211.947 267.693 213.92 267.693 216.48V231H262.413L260.933 228.08H260.773C260.159 228.853 259.519 229.493 258.853 230C258.213 230.48 257.466 230.827 256.613 231.04C255.759 231.28 254.719 231.4 253.493 231.4C252.213 231.4 251.066 231.147 250.053 230.64C249.039 230.107 248.239 229.32 247.653 228.28C247.066 227.213 246.773 225.867 246.773 224.24C246.773 221.867 247.586 220.107 249.213 218.96C250.866 217.813 253.253 217.173 256.373 217.04L260.053 216.92V216.6C260.053 215.613 259.813 214.92 259.333 214.52C258.853 214.093 258.199 213.88 257.373 213.88C256.493 213.88 255.519 214.04 254.453 214.36C253.386 214.653 252.306 215.04 251.213 215.52L249.013 210.48C250.293 209.813 251.733 209.32 253.333 209C254.959 208.653 256.773 208.48 258.773 208.48ZM258.333 221.2C256.946 221.253 255.959 221.507 255.373 221.96C254.813 222.387 254.533 223 254.533 223.8C254.533 224.547 254.733 225.107 255.133 225.48C255.533 225.827 256.066 226 256.733 226C257.666 226 258.453 225.707 259.093 225.12C259.759 224.533 260.093 223.773 260.093 222.84V221.12L258.333 221.2ZM304.095 208.48C306.628 208.48 308.561 209.12 309.895 210.4C311.228 211.68 311.895 213.747 311.895 216.6V231H304.255V218.96C304.255 217.28 304.028 216.12 303.575 215.48C303.121 214.813 302.455 214.48 301.575 214.48C300.348 214.48 299.495 215.027 299.015 216.12C298.535 217.187 298.295 218.707 298.295 220.68V231H290.655V218.96C290.655 217.893 290.561 217.04 290.375 216.4C290.188 215.733 289.908 215.253 289.535 214.96C289.161 214.64 288.681 214.48 288.095 214.48C287.215 214.48 286.521 214.747 286.015 215.28C285.535 215.813 285.201 216.587 285.015 217.6C284.828 218.613 284.735 219.853 284.735 221.32V231H277.095V208.88H282.855L283.975 211.6H284.175C284.575 210.987 285.081 210.453 285.695 210C286.308 209.52 287.041 209.147 287.895 208.88C288.748 208.613 289.721 208.48 290.815 208.48C292.441 208.48 293.775 208.76 294.815 209.32C295.881 209.853 296.748 210.6 297.415 211.56H297.655C298.348 210.573 299.241 209.813 300.335 209.28C301.455 208.747 302.708 208.48 304.095 208.48ZM331.255 208.48C333.415 208.48 335.268 208.853 336.815 209.6C338.388 210.347 339.588 211.467 340.415 212.96C341.268 214.453 341.695 216.333 341.695 218.6V222H328.055C328.108 223.147 328.535 224.093 329.335 224.84C330.161 225.587 331.348 225.96 332.895 225.96C334.281 225.96 335.548 225.827 336.695 225.56C337.841 225.293 339.028 224.867 340.255 224.28V229.76C339.188 230.32 338.015 230.733 336.735 231C335.481 231.267 333.895 231.4 331.975 231.4C329.735 231.4 327.735 231.013 325.975 230.24C324.241 229.44 322.868 228.2 321.855 226.52C320.841 224.84 320.335 222.693 320.335 220.08C320.335 217.413 320.788 215.227 321.695 213.52C322.628 211.813 323.908 210.547 325.535 209.72C327.188 208.893 329.095 208.48 331.255 208.48ZM331.535 213.68C330.628 213.68 329.868 213.96 329.255 214.52C328.668 215.08 328.321 215.973 328.215 217.2H334.775C334.775 216.533 334.641 215.947 334.375 215.44C334.135 214.907 333.775 214.48 333.295 214.16C332.815 213.84 332.228 213.68 331.535 213.68ZM364.061 208.48C366.355 208.48 368.221 209.12 369.661 210.4C371.101 211.68 371.821 213.747 371.821 216.6V231H364.181V218.92C364.181 217.453 363.968 216.347 363.541 215.6C363.115 214.853 362.435 214.48 361.501 214.48C360.061 214.48 359.088 215.067 358.581 216.24C358.101 217.413 357.861 219.107 357.861 221.32V231H350.221V208.88H355.981L357.021 211.8H357.301C357.781 211.107 358.341 210.52 358.981 210.04C359.648 209.533 360.395 209.147 361.221 208.88C362.075 208.613 363.021 208.48 364.061 208.48ZM392.058 225.36C392.751 225.36 393.378 225.293 393.938 225.16C394.525 225 395.125 224.813 395.738 224.6V230.16C394.911 230.507 394.031 230.8 393.098 231.04C392.165 231.28 390.978 231.4 389.538 231.4C388.098 231.4 386.831 231.173 385.738 230.72C384.671 230.267 383.831 229.493 383.218 228.4C382.605 227.28 382.298 225.72 382.298 223.72V214.6H379.618V211.48L383.018 209.08L384.978 204.44H389.978V208.88H395.418V214.6H389.978V223.2C389.978 223.92 390.151 224.467 390.498 224.84C390.871 225.187 391.391 225.36 392.058 225.36ZM413.777 208.48C415.937 208.48 417.79 208.853 419.337 209.6C420.91 210.347 422.11 211.467 422.937 212.96C423.79 214.453 424.217 216.333 424.217 218.6V222H410.577C410.63 223.147 411.057 224.093 411.857 224.84C412.683 225.587 413.87 225.96 415.417 225.96C416.803 225.96 418.07 225.827 419.217 225.56C420.363 225.293 421.55 224.867 422.777 224.28V229.76C421.71 230.32 420.537 230.733 419.257 231C418.003 231.267 416.417 231.4 414.497 231.4C412.257 231.4 410.257 231.013 408.497 230.24C406.763 229.44 405.39 228.2 404.377 226.52C403.363 224.84 402.857 222.693 402.857 220.08C402.857 217.413 403.31 215.227 404.217 213.52C405.15 211.813 406.43 210.547 408.057 209.72C409.71 208.893 411.617 208.48 413.777 208.48ZM414.057 213.68C413.15 213.68 412.39 213.96 411.777 214.52C411.19 215.08 410.843 215.973 410.737 217.2H417.297C417.297 216.533 417.163 215.947 416.897 215.44C416.657 214.907 416.297 214.48 415.817 214.16C415.337 213.84 414.75 213.68 414.057 213.68Z" fill="#323232"/>
<circle r="13" transform="matrix(1 0 0 -1 338 303)" fill="#FF706F"/>
<circle r="13" transform="matrix(1 0 0 -1 252 303)" fill="#3E8AFD"/>
<circle r="13" transform="matrix(1 0 0 -1 166 303)" fill="#FBDA55"/>
</svg>
